<svg xmlns="http://www.w3.org/2000/svg" style="display: none;">
  <symbol id="icon-check" viewBox="0 0 24 24">
    <path d="M20 6L9 17l-5-5" fill="currentColor" />
  </symbol>
  <symbol id="icon-close" viewBox="0 0 24 24">
    <path d="M18 6L6 18M6 6l12 12" fill="none" stroke="currentColor" stroke-width="2"/>
  </symbol>
  <symbol id="star" viewBox="0 0 24 24">
    <path d="M12 2l3.09 6.26L22 9.27l-5 4.87 1.18 6.88L12 17.77l-6.18 3.25L7 14.14 2 9.27l6.91-1.01L12 2z" />
  </symbol>
<symbol fill="currentColor" id="patient" stroke="currentColor" viewbox="0 -960 960 960">
<path d="M480-560q-66 0-113-47t-47-113q0-66 47-113t113-47q66 0 113 47t47 113q0 66-47 113t-113 47Zm0-80q33 0 56.5-23.5T560-720q0-33-23.5-56.5T480-800q-33 0-56.5 23.5T400-720q0 33 23.5 56.5T480-640ZM160-80v-271q0-34 17-62.5t47-44.5q51-26 115.5-44T480-520q76 0 140.5 18T736-458q30 16 47 44.5t17 62.5v191q0 33-23.5 56.5T720-80H390q-46 0-78-32t-32-78q0-46 32-78t78-32h113l62-132q-20-4-41-6t-44-2q-72 0-128 17.5T261-386q-10 5-15.5 14.5T240-351v271h-80Zm230-80h48l28-60h-76q-12 0-21 9t-9 21q0 12 9 21t21 9Zm136 0h194v-191q0-11-5.5-20.5T700-386q-12-6-26-12.5T644-411L526-160Zm-46-560Zm0 426Z"/>
</symbol>
<symbol fill="currentColor" id="patient.documentation" viewbox="0 0 24 24">
<path d="M14,2H6A2,2 0 0,0 4,4V20A2,2 0 0,0 6,22H18A2,2 0 0,0 20,20V8L14,2M18,20H6V4H13V9H18V20Z"/>
</symbol>
<symbol fill="currentColor" id="patient.prescription" stroke="currentColor" viewbox="0 -960 960 960">
<path d="m678-134 46-46-64-64-46 46q-14 14-14 32t14 32q14 14 32 14t32-14Zm102-102 46-46q14-14 14-32t-14-32q-14-14-32-14t-32 14l-46 46 64 64ZM735-77q-37 37-89 37t-89-37q-37-37-37-89t37-89l148-148q37-37 89-37t89 37q37 37 37 89t-37 89L735-77ZM200-200v-560 560Zm0 80q-33 0-56.5-23.5T120-200v-560q0-33 23.5-56.5T200-840h168q13-36 43.5-58t68.5-22q38 0 68.5 22t43.5 58h168q33 0 56.5 23.5T840-760v245q-20-5-40-5t-40 3v-243H200v560h243q-3 20-3 40t5 40H200Zm280-670q13 0 21.5-8.5T510-820q0-13-8.5-21.5T480-850q-13 0-21.5 8.5T450-820q0 13 8.5 21.5T480-790ZM280-600v-80h400v80H280Zm0 160v-80h400v34q-8 5-15.5 11.5T649-460l-20 20H280Zm0 160v-80h269l-49 49q-8 8-14.5 15.5T474-280H280Z"/>
</symbol>
<symbol fill="currentColor" id="patient.care_plan" viewbox="0 0 24 24">
<path d="M9,20.42L2.79,14.21L5.62,11.38L9,14.77L18.88,4.88L21.71,7.71L9,20.42Z"/>
</symbol>
<symbol fill="#e3e3e3" id="patient.medication" viewbox="0 -960 960 960">
<path d="M420-260h120v-100h100v-120H540v-100H420v100H320v120h100v100ZM280-120q-33 0-56.5-23.5T200-200v-440q0-33 23.5-56.5T280-720h400q33 0 56.5 23.5T760-640v440q0 33-23.5 56.5T680-120H280Zm0-80h400v-440H280v440Zm-40-560v-80h480v80H240Zm40 120v440-440Z"/>
</symbol>
<symbol fill="currentColor" id="professionals" stroke="currentColor" viewbox="0 -960 960 960">
<path d="M40-160v-112q0-34 17.5-62.5T104-378q62-31 126-46.5T360-440q66 0 130 15.5T616-378q29 15 46.5 43.5T680-272v112H40Zm720 0v-120q0-44-24.5-84.5T666-434q51 6 96 20.5t84 35.5q36 20 55 44.5t19 53.5v120H760ZM360-480q-66 0-113-47t-47-113q0-66 47-113t113-47q66 0 113 47t47 113q0 66-47 113t-113 47Zm400-160q0 66-47 113t-113 47q-11 0-28-2.5t-28-5.5q27-32 41.5-71t14.5-81q0-42-14.5-81T544-792q14-5 28-6.5t28-1.5q66 0 113 47t47 113ZM120-240h480v-32q0-11-5.5-20T580-306q-54-27-109-40.5T360-360q-56 0-111 13.5T140-306q-9 5-14.5 14t-5.5 20v32Zm240-320q33 0 56.5-23.5T440-640q0-33-23.5-56.5T360-720q-33 0-56.5 23.5T280-640q0 33 23.5 56.5T360-560Zm0 320Zm0-400Z"/>
</symbol>
<symbol fill="currentColor" id="team-management" viewbox="0 -960 960 960">
<path d="M0-240v-63q0-43 44-70t116-27q13 0 25 .5t23 2.5q-14 21-21 44t-7 48v65H0Zm240 0v-65q0-32 17.5-58.5T307-410q32-20 76.5-30t96.5-10q53 0 97.5 10t76.5 30q32 20 49 46.5t17 58.5v65H240Zm540 0v-65q0-26-6.5-49T754-397q11-2 22.5-2.5t22.5-.5q72 0 116 26.5t44 70.5v63H780Zm-455-80h311q-10-20-55.5-35T480-370q-55 0-100.5 15T325-320ZM160-440q-33 0-56.5-23.5T80-520q0-34 23.5-57t56.5-23q34 0 57 23t23 57q0 33-23 56.5T160-440Zm640 0q-33 0-56.5-23.5T720-520q0-34 23.5-57t56.5-23q34 0 57 23t23 57q0 33-23 56.5T800-440Zm-320-40q-50 0-85-35t-35-85q0-51 35-85.5t85-34.5q51 0 85.5 34.5T600-600q0 50-34.5 85T480-480Zm0-80q17 0 28.5-11.5T520-600q0-17-11.5-28.5T480-640q-17 0-28.5 11.5T440-600q0 17 11.5 28.5T480-560Zm1 240Zm-1-280Z"/>
</symbol>
<symbol fill="currentColor" id="professionals.training" viewbox="0 0 24 24">
<path d="M12,1L3,5V11C3,16.55 6.84,21.74 12,23C17.16,21.74 21,16.55 21,11V5L12,1Z"/>
</symbol>
<symbol fill="currentColor" id="financial" stroke="currentColor" viewbox="0 -960 960 960">
<path d="M444-200h70v-50q50-9 86-39t36-89q0-42-24-77t-96-61q-60-20-83-35t-23-41q0-26 18.5-41t53.5-15q32 0 50 15.5t26 38.5l64-26q-11-35-40.5-61T516-710v-50h-70v50q-50 11-78 44t-28 74q0 47 27.5 76t86.5 50q63 23 87.5 41t24.5 47q0 33-23.5 48.5T486-314q-33 0-58.5-20.5T390-396l-66 26q14 48 43.5 77.5T444-252v52Zm36 120q-83 0-156-31.5T197-197q-54-54-85.5-127T80-480q0-83 31.5-156T197-763q54-54 127-85.5T480-880q83 0 156 31.5T763-763q54 54 85.5 127T880-480q0 83-31.5 156T763-197q-54 54-127 85.5T480-80Zm0-80q134 0 227-93t93-227q0-134-93-227t-227-93q-134 0-227 93t-93 227q0 134 93 227t227 93Zm0-320Z"/>
</symbol>
<symbol fill="currentColor" id="reports" viewbox="0 0 24 24">
<path d="M13 9h5.5L13 3.5V9M6 2h8l6 6v12a2 2 0 0 1-2 2H6a2 2 0 0 1-2-2V4a2 2 0 0 1 2-2m0 18h12V9h-5V4H6v16m7-10h4v2h-4v-2m0 3h4v2h-4v-2m-3-3h2v6h-2v-6z"/>
</symbol>
<symbol fill="currentColor" id="settings" stroke="currentColor" viewbox="0 -960 960 960">
<path d="m370-80-16-128q-13-5-24.5-12T307-235l-119 50L78-375l103-78q-1-7-1-13.5v-27q0-6.5 1-13.5L78-585l110-190 119 50q11-8 23-15t24-12l16-128h220l16 128q13 5 24.5 12t22.5 15l119-50 110 190-103 78q1 7 1 13.5v27q0 6.5-2 13.5l103 78-110 190-118-50q-11 8-23 15t-24 12L590-80H370Zm70-80h79l14-106q31-8 57.5-23.5T639-327l99 41 39-68-86-65q5-14 7-29.5t2-31.5q0-16-2-31.5t-7-29.5l86-65-39-68-99 42q-22-23-48.5-38.5T533-694l-13-106h-79l-14 106q-31 8-57.5 23.5T321-633l-99-41-39 68 86 64q-5 15-7 30t-2 32q0 16 2 31t7 30l-86 65 39 68 99-42q22 23 48.5 38.5T427-266l13 106Zm42-180q58 0 99-41t41-99q0-58-41-99t-99-41q-59 0-99.5 41T342-480q0 58 40.5 99t99.5 41Zm-2-140Z"/>
</symbol>
<symbol fill="currentColor" id="scheduling" viewbox="0 0 24 24">
<path d="M19,19H5V8H19M16,1V3H8V1H6V3H5C3.89,3 3,3.89 3,5V19A2,2 0 0,0 5,21H19A2,2 0 0,0 21,19V5C21,3.89 20.1,3 19,3H18V1M17,12H12V17H17V12Z"/>
</symbol>
<symbol fill="currentColor" id="support" stroke="currentColor" viewbox="0 -960 960 960">
<path d="M440-120v-80h320v-284q0-117-81.5-198.5T480-764q-117 0-198.5 81.5T200-484v244h-40q-33 0-56.5-23.5T80-320v-80q0-21 10.5-39.5T120-469l3-53q8-68 39.5-126t79-101q47.5-43 109-67T480-840q68 0 129 24t109 66.5Q766-707 797-649t40 126l3 52q19 9 29.5 27t10.5 38v92q0 20-10.5 38T840-249v49q0 33-23.5 56.5T760-120H440Zm-80-280q-17 0-28.5-11.5T320-440q0-17 11.5-28.5T360-480q17 0 28.5 11.5T400-440q0 17-11.5 28.5T360-400Zm240 0q-17 0-28.5-11.5T560-440q0-17 11.5-28.5T600-480q17 0 28.5 11.5T640-440q0 17-11.5 28.5T600-400Zm-359-62q-7-106 64-182t177-76q89 0 156.5 56.5T720-519q-91-1-167.5-49T435-698q-16 80-67.5 142.5T241-462Z"/>
</symbol>
<symbol fill="currentColor" id="movement" stroke="currentColor" viewbox="0 -960 960 960">
<path d="m320-160-56-57 103-103H80v-80h287L264-503l56-57 200 200-200 200Zm320-240L440-600l200-200 56 57-103 103h287v80H593l103 103-56 57Z"/>
</symbol>
<symbol fill="currentColor" id="movement.pharmacy" viewbox="0 0 24 24">
<path d="M6,3A1,1 0 0,1 7,4V5H17V4A1,1 0 0,1 18,3A1,1 0 0,1 19,4V5H20A2,2 0 0,1 22,7V19A2,2 0 0,1 20,21H4A2,2 0 0,1 2,19V7A2,2 0 0,1 4,5H5V4A1,1 0 0,1 6,3M4,9V19H20V9H4M6,11H8V13H10V15H8V17H6V15H4V13H6V11Z"/>
</symbol>
<symbol fill="currentColor" id="movement.supply" viewbox="0 0 24 24">
<path d="M12 12c2.21 0 4-1.79 4-4s-1.79-4-4-4-4 1.79-4 4 1.79 4 4 4zm0 2c-2.67 0-8 1.34-8 4v2h16v-2c0-2.66-5.33-4-8-4z"/>
</symbol>
<symbol fill="#e3e3e3" height="24px" id="communication" viewbox="0 -960 960 960" width="24px">
<path d="M160-160q-33 0-56.5-23.5T80-240v-480q0-33 23.5-56.5T160-800h640q33 0 56.5 23.5T880-720v480q0 33-23.5 56.5T800-160H160Zm0-80h640v-480H160v480Zm0-480v480-480Zm80-80h480L480-530 240-720Zm-80 0v-80 560-480Z"/>
</symbol>
<symbol fill="#e3e3e3" height="24px" id="service" viewbox="0 -960 960 960" width="24px">
<path d="M760-400v-260L560-800 360-660v60h-80v-100l280-200 280 200v300h-80ZM560-800Zm20 160h40v-40h-40v40Zm-80 0h40v-40h-40v40Zm80 80h40v-40h-40v40Zm-80 0h40v-40h-40v40ZM280-220l278 76 238-74q-5-9-14.5-15.5T760-240H558q-27 0-43-2t-33-8l-93-31 22-78 81 27q17 5 40 8t68 4q0-11-6.5-21T578-354l-234-86h-64v220ZM40-80v-440h304q7 0 14 1.5t13 3.5l235 87q33 12 53.5 42t20.5 66h80q50 0 85 33t35 87v40L560-60l-280-78v58H40Zm80-80h80v-280h-80v280Z"/>
</symbol>
<symbol fill="currentColor" id="integration" viewbox="0 0 24 24">
<path d="M8,3A2,2 0 0,0 6,5V9A2,2 0 0,1 4,11H3V13H4A2,2 0 0,1 6,15V19A2,2 0 0,0 8,21H10V19H8V14A2,2 0 0,0 6,12A2,2 0 0,0 8,10V5H10V3H8M16,3A2,2 0 0,1 18,5V9A2,2 0 0,0 20,11H21V13H20A2,2 0 0,0 18,15V19A2,2 0 0,1 16,21H14V19H16V14A2,2 0 0,1 18,12A2,2 0 0,1 16,10V5H14V3H16Z"/>
</symbol>
<symbol fill="currentColor" id="quality_and_security" viewbox="0 0 24 24">
<path d="M12,1L3,5V11C3,16.55 6.84,21.74 12,23C17.16,21.74 21,16.55 21,11V5L12,1M12,7C13.4,7 14.8,8.6 14.8,10V11.5C15.4,11.5 16,12.1 16,12.7V16.2C16,16.8 15.4,17.3 14.8,17.3H9.2C8.6,17.3 8,16.8 8,16.2V12.7C8,12.1 8.6,11.5 9.2,11.5V10C9.2,8.6 10.6,7 12,7M12,8.2C11.2,8.2 10.5,8.7 10.5,10V11.5H13.5V10C13.5,8.7 12.8,8.2 12,8.2Z"/>
</symbol>
<symbol fill="currentColor" id="Compliance_and_regulation" viewbox="0 0 24 24">
<path d="M9,12L11,14L15,10L13,8L11,10L9,12M12,2A10,10 0 0,1 22,12A10,10 0 0,1 12,22A10,10 0 0,1 2,12A10,10 0 0,1 12,2M12,4A8,8 0 0,0 4,12A8,8 0 0,0 12,20A8,8 0 0,0 20,12A8,8 0 0,0 12,4Z"/>
</symbol>
<symbol fill="currentColor" id="audit_and_quality" viewbox="0 0 24 24">
<path d="M12,2L1,21H23L12,2ZM13,18H11V16H13V18ZM13,14H11V10H13V14Z"/>
</symbol>
<symbol fill="#e3e3e3" height="24px" id="others" viewbox="0 -960 960 960" width="24px">
<path d="m260-520 220-360 220 360H260ZM700-80q-75 0-127.5-52.5T520-260q0-75 52.5-127.5T700-440q75 0 127.5 52.5T880-260q0 75-52.5 127.5T700-80Zm-580-20v-320h320v320H120Zm580-60q42 0 71-29t29-71q0-42-29-71t-71-29q-42 0-71 29t-29 71q0 42 29 71t71 29Zm-500-20h160v-160H200v160Zm202-420h156l-78-126-78 126Zm78 0ZM360-340Zm340 80Z"/>
</symbol>

</svg>
