<svg xmlns="http://www.w3.org/2000/svg" width="100" height="100" viewBox="20 20 160 150">
  <rect cx="200" cy="100" r="98.182" fill="#2563eb" stroke="#1d4ed8" width="160" x="20" height="150" rx="29.194" ry="29.194" y="20"></rect>
  <circle cx="30" cy="100" r="3" fill="#ffffff" opacity="0.6"></circle>
  <circle cx="170" cy="100" r="3" fill="#ffffff" opacity="0.6"></circle>
  <circle cx="100" cy="30" r="3" fill="#ffffff" opacity="0.6"></circle>
  <line x1="33" y1="100" x2="170" y2="100" stroke="#ffffff" stroke-width="1" opacity="0.3" stroke-dasharray="5,5"></line>
  <line x1="100" y1="33" x2="100" y2="150" stroke="#ffffff" stroke-width="1" opacity="0.3" stroke-dasharray="5,5"></line>
  <path d="M100 45 L140 75 L140 135 L60 135 L60 75 Z" fill="#ffffff" opacity="0.95"></path>
  <path d="M100 45 L150 80 L140 85 L100 55 L60 85 L50 80 Z" fill="#e5e7eb"></path>
  <rect x="85" y="110" width="30" height="25" fill="#374151" rx="2"></rect>
  <circle cx="108" cy="122" r="2" fill="#ffffff"></circle>
  <rect x="70" y="95" width="12" height="12" fill="#60a5fa" rx="1"></rect>
  <rect x="118" y="95" width="12" height="12" fill="#60a5fa" rx="1"></rect>
  <line x1="76" y1="95" x2="76" y2="107" stroke="#2563eb" stroke-width="1"></line>
  <line x1="70" y1="101" x2="82" y2="101" stroke="#2563eb" stroke-width="1"></line>
  <line x1="124" y1="95" x2="124" y2="107" stroke="#2563eb" stroke-width="1"></line>
  <line x1="118" y1="101" x2="130" y2="101" stroke="#2563eb" stroke-width="1"></line>
  <g transform="translate(70, 55)  scale(0.3)">
    <path d="M100 170 
             C100 170, 40 120, 40 80 
             C40 60, 55 45, 75 45 
             C85 45, 93 50, 100 58
             C107 50, 115 45, 125 45 
             C145 45, 160 60, 160 80 
             C160 120, 100 170, 100 170 Z" fill="#4a5568" stroke="#2d3748" stroke-width="3"></path>
    <path d="M60 100 L75 100 L80 85 L85 115 L95 75 L105 125 L115 85 L120 100 L140 100" fill="none" stroke="#ffffff" stroke-width="4" stroke-linecap="round" stroke-linejoin="round"></path>
    <circle cx="60" cy="100" r="3" fill="#ffffff"></circle>
    <circle cx="140" cy="100" r="3" fill="#ffffff"></circle>
  </g>
  <g transform="translate(140, 60)">
    <path d="M0 8 C0 3, 4 0, 8 0 C12 0, 16 3, 16 8 C16 16, 8 24, 8 24 C8 24, 0 16, 0 8 Z" fill="#ef4444" opacity="0.8"></path>
    <circle cx="8" cy="7" r="3" fill="#6b7280" opacity="0.7"></circle>
  </g>
  <g transform="translate(60, 60)"></g>
  <path id="textcircle" d="M 50 150 C 80.954 150.171 115.937 150.154 150 150" fill="none"></path>
  <text font-family="Arial, sans-serif" font-size="12" font-weight="bold" fill="#ffffff" opacity="0.9" style="white-space: pre;" transform="matrix(1, 0, 0, 1, 0.335721, 5.909091)">
    <textPath href="#textcircle" startOffset="50%" text-anchor="middle">
      WebCareManager
    </textPath>
  </text>
  <g transform="translate(57, 52) scale(0.2)">
    <path d="M 56,190" fill="#ffffff"></path>
    <path d="M 151,132" fill="#ffffff"></path>
    <path d="M 135,125" fill="#ffffff"></path>
    <path d="M 16,118" fill="#ffffff"></path>
    <path d="M 38,117" fill="#ffffff"></path>
    <path d="M 40,114" fill="#ffffff"></path>
    <path d="M 100,107" fill="black"></path>
    <path d="M 98,107 L 98,108" fill="#ffffff"></path>
    <path d="M 45,23 L 44,24 L 43,24 L 42,25 L 42,26 L 41,27 L 41,33 L 40,34 L 37,34 L 36,35 L 34,35 L 33,36 L 31,36 L 30,37 L 29,37 L 28,38 L 27,38 L 24,41 L 23,41 L 19,45 L 19,46 L 17,48 L 17,49 L 16,50 L 16,51 L 15,52 L 15,53 L 14,54 L 14,55 L 13,56 L 13,59 L 12,60 L 12,97 L 13,98 L 13,101 L 14,102 L 14,104 L 15,105 L 15,107 L 16,108 L 16,109 L 17,110 L 17,111 L 18,112 L 18,113 L 20,115 L 20,116 L 28,124 L 29,124 L 31,126 L 32,126 L 34,128 L 34,130 L 33,131 L 34,132 L 33,133 L 34,132 L 35,132 L 36,133 L 37,133 L 38,134 L 40,134 L 41,135 L 44,135 L 45,136 L 53,136 L 54,137 L 54,154 L 55,155 L 57,155 L 58,156 L 58,169 L 57,170 L 57,172 L 58,173 L 58,181 L 59,182 L 59,184 L 60,185 L 60,187 L 61,188 L 61,189 L 62,190 L 62,191 L 63,192 L 63,193 L 64,194 L 64,195 L 66,197 L 66,198 L 73,205 L 74,205 L 75,206 L 76,206 L 78,208 L 80,208 L 81,209 L 84,209 L 85,210 L 89,210 L 90,211 L 96,211 L 97,210 L 102,210 L 103,209 L 105,209 L 106,208 L 109,208 L 111,206 L 112,206 L 114,204 L 115,204 L 115,203 L 116,202 L 117,202 L 119,200 L 119,199 L 122,196 L 122,194 L 123,193 L 123,192 L 124,191 L 124,190 L 125,189 L 125,187 L 126,186 L 126,183 L 127,182 L 127,131 L 128,130 L 129,131 L 128,130 L 128,129 L 129,128 L 129,127 L 136,120 L 137,120 L 138,119 L 139,119 L 140,118 L 141,118 L 143,120 L 143,122 L 146,125 L 146,126 L 149,129 L 150,129 L 151,130 L 152,130 L 153,131 L 155,131 L 156,132 L 166,132 L 167,131 L 169,131 L 170,130 L 172,130 L 177,125 L 178,126 L 177,125 L 178,124 L 178,123 L 179,122 L 179,121 L 180,120 L 180,118 L 181,117 L 181,108 L 180,107 L 180,105 L 178,103 L 178,102 L 177,101 L 177,100 L 174,97 L 175,96 L 174,97 L 173,97 L 172,96 L 171,96 L 170,95 L 169,95 L 168,94 L 167,94 L 166,93 L 157,93 L 156,94 L 154,94 L 153,95 L 152,95 L 151,96 L 150,96 L 144,102 L 144,103 L 143,104 L 143,105 L 142,106 L 141,106 L 142,107 L 142,108 L 141,109 L 138,109 L 137,110 L 136,110 L 135,111 L 134,111 L 133,112 L 132,112 L 130,114 L 129,114 L 128,113 L 129,114 L 127,116 L 126,116 L 124,118 L 124,119 L 122,121 L 122,122 L 121,123 L 121,124 L 120,125 L 120,126 L 119,127 L 119,130 L 118,131 L 118,181 L 117,182 L 117,185 L 116,186 L 116,187 L 115,188 L 115,189 L 114,190 L 114,191 L 112,193 L 112,194 L 110,196 L 109,196 L 106,199 L 105,199 L 104,200 L 102,200 L 101,201 L 98,201 L 97,202 L 89,202 L 88,201 L 86,201 L 85,200 L 83,200 L 82,199 L 81,199 L 78,196 L 77,196 L 75,194 L 75,193 L 74,193 L 73,192 L 73,191 L 71,189 L 71,188 L 70,187 L 70,186 L 69,185 L 69,184 L 68,183 L 68,181 L 67,180 L 67,156 L 69,154 L 70,155 L 71,154 L 71,138 L 73,136 L 83,136 L 84,135 L 87,135 L 88,134 L 90,134 L 91,133 L 92,133 L 93,132 L 94,132 L 94,130 L 93,129 L 93,128 L 94,127 L 95,127 L 97,125 L 98,125 L 100,123 L 101,123 L 103,121 L 103,120 L 105,118 L 106,118 L 107,117 L 107,116 L 109,114 L 109,113 L 110,112 L 110,111 L 112,109 L 112,108 L 113,107 L 113,105 L 114,104 L 114,102 L 115,101 L 115,95 L 116,94 L 116,62 L 115,61 L 115,56 L 114,55 L 114,54 L 113,53 L 113,52 L 112,51 L 112,49 L 108,45 L 108,44 L 106,42 L 105,42 L 101,38 L 100,38 L 99,37 L 98,37 L 97,36 L 94,36 L 93,35 L 91,35 L 90,34 L 88,34 L 87,33 L 87,29 L 86,28 L 86,26 L 85,25 L 85,24 L 84,24 L 83,23 L 81,23 L 80,24 L 79,24 L 76,27 L 76,28 L 75,29 L 75,33 L 74,34 L 74,42 L 75,43 L 75,46 L 76,47 L 76,48 L 77,49 L 77,50 L 79,52 L 84,52 L 86,50 L 86,47 L 87,46 L 87,44 L 88,43 L 89,43 L 90,44 L 92,44 L 93,45 L 94,45 L 95,46 L 96,46 L 104,54 L 104,55 L 103,56 L 104,55 L 105,56 L 105,57 L 106,58 L 106,61 L 107,62 L 107,95 L 106,96 L 106,100 L 105,101 L 105,103 L 104,104 L 104,105 L 102,107 L 102,108 L 100,110 L 100,111 L 96,115 L 95,115 L 91,119 L 90,119 L 89,120 L 88,119 L 88,117 L 87,116 L 86,117 L 84,117 L 83,118 L 82,118 L 81,119 L 79,119 L 78,120 L 51,120 L 50,119 L 47,119 L 46,118 L 44,118 L 43,117 L 40,117 L 40,119 L 39,120 L 38,120 L 34,116 L 34,115 L 33,116 L 31,114 L 32,113 L 31,114 L 28,111 L 28,110 L 25,107 L 25,106 L 24,105 L 24,103 L 23,102 L 23,101 L 22,100 L 22,98 L 21,97 L 21,93 L 20,92 L 20,65 L 21,64 L 21,60 L 22,59 L 22,58 L 23,57 L 23,56 L 24,55 L 24,54 L 28,50 L 28,49 L 29,48 L 30,48 L 32,46 L 33,46 L 34,45 L 35,45 L 36,44 L 38,44 L 39,43 L 40,43 L 41,44 L 41,48 L 42,49 L 42,50 L 44,52 L 48,52 L 49,51 L 50,51 L 51,50 L 51,49 L 52,48 L 52,47 L 53,46 L 53,44 L 54,43 L 54,32 L 53,31 L 53,29 L 52,28 L 52,27 L 49,24 L 48,24 L 47,23" fill="#ef4444" opacity="0."></path>
  </g>
</svg>